<svg preserveAspectRatio="none" overflow="visible" style="display: block;" width="48" height="48" viewBox="0 0 48 48" fill="none" xmlns="http://www.w3.org/2000/svg">
<g id="Icons">
<path id="Vector" d="M12.5669 29.1968C12.5669 31.4961 10.7087 33.3543 8.40945 33.3543C6.11024 33.3543 4.25197 31.4961 4.25197 29.1968C4.25197 26.8976 6.11024 25.0394 8.40945 25.0394H12.5669V29.1968ZM14.6457 29.1968C14.6457 26.8976 16.5039 25.0394 18.8031 25.0394C21.1024 25.0394 22.9606 26.8976 22.9606 29.1968V39.5905C22.9606 41.8898 21.1024 43.748 18.8031 43.748C16.5039 43.748 14.6457 41.8898 14.6457 39.5905V29.1968Z" fill="#E01E5A"/>
<path id="Vector_2" d="M18.8031 12.5039C16.5039 12.5039 14.6457 10.6457 14.6457 8.34646C14.6457 6.04724 16.5039 4.18898 18.8031 4.18898C21.1024 4.18898 22.9606 6.04724 22.9606 8.34646V12.5039H18.8031ZM18.8031 14.6142C21.1024 14.6142 22.9606 16.4724 22.9606 18.7717C22.9606 21.0709 21.1024 22.9291 18.8031 22.9291H8.37795C6.07874 22.9291 4.22047 21.0709 4.22047 18.7717C4.22047 16.4724 6.07874 14.6142 8.37795 14.6142H18.8031Z" fill="#36C5F0"/>
<path id="Vector_3" d="M35.4646 18.7717C35.4646 16.4724 37.3228 14.6142 39.622 14.6142C41.9213 14.6142 43.7795 16.4724 43.7795 18.7717C43.7795 21.0709 41.9213 22.9291 39.622 22.9291H35.4646V18.7717ZM33.3858 18.7717C33.3858 21.0709 31.5276 22.9291 29.2283 22.9291C26.9291 22.9291 25.0709 21.0709 25.0709 18.7717V8.34646C25.0709 6.04724 26.9291 4.18898 29.2283 4.18898C31.5276 4.18898 33.3858 6.04724 33.3858 8.34646V18.7717Z" fill="#2EB67D"/>
<path id="Vector_4" d="M29.2283 35.4331C31.5276 35.4331 33.3858 37.2913 33.3858 39.5905C33.3858 41.8898 31.5276 43.748 29.2283 43.748C26.9291 43.748 25.0709 41.8898 25.0709 39.5905V35.4331H29.2283ZM29.2283 33.3543C26.9291 33.3543 25.0709 31.4961 25.0709 29.1968C25.0709 26.8976 26.9291 25.0394 29.2283 25.0394H39.6535C41.9528 25.0394 43.811 26.8976 43.811 29.1968C43.811 31.4961 41.9528 33.3543 39.6535 33.3543H29.2283Z" fill="#ECB22E"/>
</g>
</svg>
